<svg xmlns="http://www.w3.org/2000/svg" width="162" height="42" fill="none" style=""><rect id="backgroundrect" width="100%" height="100%" x="0" y="0" fill="none" stroke="none"/>


<g class="currentLayer" style=""><title>Layer 1</title><path d="M5.759999931335448,35.391999176025394 H15.679999931335448 V40.06399917602539 H-6.866455048992748e-8 V-8.239746094318434e-7 H5.759999931335448 V35.391999176025394 zM23.15399993133545,35.391999176025394 H34.73799993133545 V40.06399917602539 H17.32999993133545 V-8.239746094318434e-7 H34.28999993133545 V4.671999176025391 H23.15399993133545 V17.02399917602539 H32.36999993133545 V21.69599917602539 H23.15399993133545 V35.391999176025394 zM52.06749993133545,40.06399917602539 L50.467499931335446,30.78399917602539 H42.019499931335446 L40.54749993133545,40.06399917602539 H34.78749993133545 L41.891499931335446,-8.239746094318434e-7 H50.275499931335446 L57.891499931335446,40.06399917602539 H52.06749993133545 zM42.723499931335446,26.111999176025392 H49.69949993133545 L46.05149993133545,4.9919991760253914 L42.723499931335446,26.111999176025392 zM65.81249993133545,23.87199917602539 V40.06399917602539 H60.05249993133545 V-8.239746094318434e-7 H73.17249993133545 C77.14049993133546,-8.239746094318434e-7 79.12449993133545,1.8772991760253923 79.12449993133545,5.631999176025392 V18.175999176025393 C79.12449993133545,21.41869917602539 77.69519993133545,23.274699176025393 74.83649993133545,23.74399917602539 L81.17249993133545,40.06399917602539 H74.96449993133545 L68.94849993133545,23.87199917602539 H65.81249993133545 zM65.81249993133545,4.671999176025391 V19.263999176025393 H71.44449993133544 C72.21249993133544,19.263999176025393 72.72449993133544,19.15729917602539 72.98049993133544,18.943999176025393 C73.23649993133544,18.687999176025393 73.36449993133544,18.175999176025393 73.36449993133544,17.407999176025392 V6.527999176025389 C73.36449993133544,5.759999176025392 73.23649993133544,5.269299176025392 72.98049993133544,5.0559991760253915 C72.72449993133544,4.799999176025391 72.21249993133544,4.671999176025391 71.44449993133544,4.671999176025391 H65.81249993133545 zM97.77999993133545,-8.239746094318434e-7 H103.09199993133545 V40.06399917602539 H97.26799993133545 L88.81949993133544,11.135999176025393 V40.06399917602539 H83.50749993133545 V-8.239746094318434e-7 H89.58749993133544 L97.77999993133545,28.095999176025387 V-8.239746094318434e-7 z" fill="#E7E7E7" id="svg_1" class=""/><path d="M126.34199993133544,32.702799176025394 C125.30899993133545,34.28479917602539 124.05799993133544,35.68119917602539 122.58899993133545,36.89189917602539 L124.69499993133545,39.216499176025394 C125.06699993133546,39.603899176025394 125.25199993133546,40.00749917602539 125.25199993133546,40.42719917602539 C125.25199993133546,40.830799176025394 125.09099993133546,41.161699176025394 124.76799993133545,41.41999917602539 C124.44499993133545,41.69439917602539 124.01699993133545,41.83159917602539 123.48499993133545,41.83159917602539 C122.74199993133544,41.83159917602539 122.17699993133544,41.60559917602539 121.78999993133544,41.15359917602539 L119.75599993133545,38.75639917602539 C117.85099993133545,39.70889917602539 116.02699993133545,40.18509917602539 114.28299993133545,40.18509917602539 C112.99199993133544,40.18509917602539 111.86199993133545,39.98329917602539 110.89299993133545,39.57969917602539 C109.92499993133545,39.17609917602539 109.17399993133544,38.61919917602539 108.64099993133544,37.90889917602539 C108.12499993133545,37.19859917602539 107.86599993133545,36.40759917602539 107.86599993133545,35.53589917602539 C107.86599993133545,34.35749917602539 108.22999993133546,33.25979917602539 108.95599993133546,32.24279917602539 C109.69899993133545,31.209599176025392 110.90099993133545,30.19259917602539 112.56399993133545,29.19179917602539 C111.62799993133545,27.480599176025393 111.15999993133545,25.971199176025394 111.15999993133545,24.66369917602539 C111.15999993133545,23.501399176025387 111.40199993133545,22.476299176025393 111.88599993133545,21.588499176025394 C112.36999993133544,20.700599176025392 113.03999993133544,20.01449917602539 113.89599993133545,19.53019917602539 C114.76799993133545,19.045899176025394 115.75999993133544,18.803799176025393 116.87399993133545,18.803799176025393 C118.29499993133545,18.803799176025393 119.39199993133545,19.215399176025393 120.16699993133545,20.03869917602539 C120.95799993133545,20.84589917602539 121.35399993133545,21.95969917602539 121.35399993133545,23.38029917602539 C121.35399993133545,24.558699176025392 121.00699993133544,25.672599176025393 120.31299993133545,26.72189917602539 C119.63499993133544,27.754999176025393 118.42399993133544,28.812399176025387 116.67999993133544,29.89399917602539 C117.71399993133545,31.29839917602539 119.07799993133546,32.95309917602539 120.77299993133545,34.85789917602539 C121.83799993133545,33.905499176025394 122.89499993133545,32.702799176025394 123.94499993133545,31.24999917602539 C124.12199993133545,30.991699176025392 124.33199993133545,30.814099176025394 124.57399993133545,30.717299176025392 C124.81599993133545,30.604299176025393 125.11499993133546,30.547799176025393 125.46999993133545,30.547799176025393 C126.40699993133546,30.547799176025393 126.87499993133545,30.814099176025394 126.87499993133545,31.346799176025392 C126.87499993133545,31.68579917602539 126.69699993133545,32.13779917602539 126.34199993133544,32.702799176025394 zM116.70499993133545,21.34629917602539 C115.94599993133545,21.34629917602539 115.34899993133546,21.636899176025388 114.91299993133545,22.217999176025394 C114.47699993133546,22.782999176025392 114.25899993133545,23.49329917602539 114.25899993133545,24.34889917602539 C114.25899993133545,25.365899176025394 114.59799993133545,26.47969917602539 115.27599993133545,27.69049917602539 C116.53499993133545,26.947899176025388 117.39099993133544,26.229499176025392 117.84299993133546,25.535399176025393 C118.29499993133545,24.84119917602539 118.52099993133545,24.082499176025394 118.52099993133545,23.25919917602539 C118.52099993133545,22.66199917602539 118.36699993133544,22.193799176025394 118.06099993133545,21.854799176025388 C117.75399993133544,21.51579917602539 117.30199993133544,21.34629917602539 116.70499993133545,21.34629917602539 zM114.42899993133545,37.521499176025394 C115.68799993133545,37.521499176025394 116.88999993133545,37.247099176025394 118.03599993133545,36.69819917602539 C116.32499993133546,34.64809917602539 114.97699993133546,32.89659917602539 113.99299993133545,31.44369917602539 C112.16899993133545,32.63829917602539 111.25599993133545,33.881299176025394 111.25599993133545,35.17269917602539 C111.25599993133545,35.91529917602539 111.53899993133545,36.49639917602539 112.10399993133545,36.91609917602539 C112.66899993133545,37.31969917602539 113.44399993133545,37.521499176025394 114.42899993133545,37.521499176025394 zM142.28899993133544,34.66419917602539 C142.49899993133545,34.66419917602539 142.66099993133545,34.76109917602539 142.77399993133545,34.95479917602539 C142.90299993133544,35.14849917602539 142.96699993133544,35.41479917602539 142.96699993133544,35.75379917602539 C142.96699993133544,36.39959917602539 142.81399993133545,36.89999917602539 142.50699993133546,37.25509917602539 C141.84499993133545,38.06229917602539 141.11899993133545,38.75639917602539 140.32799993133546,39.33759917602539 C139.53699993133546,39.90259917602539 138.75399993133544,40.18509917602539 137.97899993133544,40.18509917602539 C136.75199993133546,40.18509917602539 135.81599993133545,39.466699176025394 135.16999993133544,38.02999917602539 C134.49199993133544,38.885599176025394 133.89499993133546,39.45859917602539 133.37799993133544,39.74919917602539 C132.87799993133544,40.03979917602539 132.28899993133544,40.18509917602539 131.61099993133544,40.18509917602539 C130.62599993133546,40.18509917602539 129.81099993133546,39.82189917602539 129.16499993133544,39.09539917602539 C128.53499993133545,38.35289917602539 128.22099993133546,37.39229917602539 128.22099993133546,36.21389917602539 C128.22099993133546,34.92249917602539 128.49499993133546,33.72789917602539 129.04399993133546,32.63019917602539 C129.59299993133544,31.51629917602539 130.34299993133544,30.612299176025388 131.29599993133544,29.91819917602539 C132.26399993133546,29.207899176025393 133.34599993133546,28.788199176025394 134.54099993133545,28.65899917602539 C134.84699993133546,25.527299176025387 135.42799993133545,22.85569917602539 136.28399993133544,20.644099176025392 C137.15599993133546,18.416399176025394 138.29399993133546,17.302499176025393 139.69799993133546,17.302499176025393 C140.39199993133545,17.302499176025393 140.96599993133546,17.61729917602539 141.41799993133546,18.246899176025387 C141.88599993133545,18.876399176025387 142.11999993133546,19.828899176025388 142.11999993133546,21.10419917602539 C142.11999993133546,22.91219917602539 141.67599993133544,25.02689917602539 140.78799993133546,27.448299176025394 C139.89999993133546,29.86979917602539 138.71399993133545,32.35579917602539 137.22799993133546,34.90629917602539 C137.29299993133546,35.84259917602539 137.42999993133546,36.51259917602539 137.63999993133544,36.91609917602539 C137.86599993133544,37.31969917602539 138.14899993133545,37.521499176025394 138.48799993133545,37.521499176025394 C138.92299993133545,37.521499176025394 139.36699993133544,37.327799176025394 139.81899993133544,36.94029917602539 C140.27099993133544,36.55289917602539 140.87699993133546,35.907199176025394 141.63499993133544,35.00319917602539 C141.82899993133546,34.77719917602539 142.04699993133545,34.66419917602539 142.28899993133544,34.66419917602539 zM139.43199993133544,19.67549917602539 C139.12499993133545,19.67549917602539 138.81799993133544,20.224399176025393 138.51199993133545,21.32209917602539 C138.20499993133544,22.40369917602539 137.93899993133545,23.824199176025388 137.71299993133545,25.583799176025394 C137.50299993133544,27.343399176025393 137.34899993133544,29.183699176025392 137.25299993133544,31.10469917602539 C139.06099993133546,27.165799176025388 139.96499993133546,24.001799176025393 139.96499993133546,21.612699176025387 C139.96499993133546,20.999199176025392 139.90799993133544,20.522999176025394 139.79499993133544,20.183999176025388 C139.69799993133546,19.84499917602539 139.57699993133545,19.67549917602539 139.43199993133544,19.67549917602539 zM132.45799993133545,37.739399176025394 C132.76499993133544,37.739399176025394 133.07199993133545,37.61839917602539 133.37799993133544,37.37619917602539 C133.68499993133545,37.11789917602539 134.07199993133545,36.64979917602539 134.54099993133545,35.97179917602539 C134.37899993133544,35.10009917602539 134.29799993133545,34.12339917602539 134.29799993133545,33.04179917602539 C134.29799993133545,32.65439917602539 134.31499993133545,32.02479917602539 134.34699993133546,31.153099176025393 C133.45899993133546,31.427499176025393 132.71599993133546,32.02479917602539 132.11899993133545,32.94499917602539 C131.53799993133546,33.84899917602539 131.24699993133544,34.85789917602539 131.24699993133544,35.97179917602539 C131.24699993133544,37.15019917602539 131.65099993133546,37.739399176025394 132.45799993133545,37.739399176025394 zM153.34699993133546,32.63019917602539 C153.55699993133544,32.63019917602539 153.71799993133544,32.73509917602539 153.83099993133544,32.94499917602539 C153.94399993133544,33.15479917602539 153.99999993133545,33.42119917602539 153.99999993133545,33.744099176025394 C153.99999993133545,34.51889917602539 153.76599993133544,34.97899917602539 153.29799993133545,35.12429917602539 C152.32999993133544,35.46329917602539 151.26399993133546,35.656999176025394 150.10199993133546,35.70539917602539 C149.79499993133544,37.06139917602539 149.18999993133545,38.15109917602539 148.28599993133545,38.97439917602539 C147.38199993133546,39.78149917602539 146.35699993133545,40.18509917602539 145.21099993133544,40.18509917602539 C144.24199993133544,40.18509917602539 143.41099993133545,39.95099917602539 142.71699993133544,39.48289917602539 C142.03899993133544,39.01469917602539 141.52199993133544,38.39319917602539 141.16699993133545,37.61839917602539 C140.81199993133544,36.84349917602539 140.63399993133544,36.00409917602539 140.63399993133544,35.10009917602539 C140.63399993133544,33.87319917602539 140.86799993133545,32.78359917602539 141.33599993133544,31.83109917602539 C141.80399993133545,30.862499176025388 142.44999993133544,30.11189917602539 143.27299993133545,29.57919917602539 C144.09699993133546,29.030299176025387 145.00899993133544,28.755899176025387 146.00999993133544,28.755899176025387 C147.23699993133545,28.755899176025387 148.22099993133546,29.183699176025392 148.96399993133545,30.039299176025388 C149.72299993133544,30.878699176025393 150.16699993133545,31.91989917602539 150.29599993133544,33.16289917602539 C151.05399993133545,33.11449917602539 151.95799993133545,32.95309917602539 153.00799993133546,32.67859917602539 C153.13699993133545,32.646299176025394 153.24999993133545,32.63019917602539 153.34699993133546,32.63019917602539 zM145.40399993133545,37.61839917602539 C145.92099993133544,37.61839917602539 146.36499993133546,37.408499176025394 146.73599993133544,36.98879917602539 C147.12399993133545,36.56909917602539 147.38199993133546,35.96369917602539 147.51099993133545,35.17269917602539 C147.01099993133545,34.83369917602539 146.62299993133544,34.38979917602539 146.34899993133544,33.84089917602539 C146.08999993133546,33.29209917602539 145.96099993133544,32.71089917602539 145.96099993133544,32.09749917602539 C145.96099993133544,31.83919917602539 145.98599993133544,31.58089917602539 146.03399993133544,31.322599176025392 H145.91299993133546 C145.26699993133545,31.322599176025392 144.72599993133545,31.63739917602539 144.28999993133544,32.266999176025394 C143.87099993133546,32.88039917602539 143.66099993133545,33.75209917602539 143.66099993133545,34.88209917602539 C143.66099993133545,35.769999176025394 143.82999993133544,36.44799917602539 144.16899993133546,36.91609917602539 C144.52499993133546,37.384299176025394 144.93599993133546,37.61839917602539 145.40399993133545,37.61839917602539 zM156.53199993133546,31.08049917602539 C156.49999993133545,31.88759917602539 156.48399993133546,32.51719917602539 156.48399993133546,32.96919917602539 C156.48399993133546,34.13149917602539 156.53999993133544,35.04359917602539 156.65299993133544,35.70539917602539 C156.78299993133544,36.35109917602539 156.98399993133546,36.81929917602539 157.25899993133544,37.10979917602539 C157.54899993133546,37.384299176025394 157.94499993133545,37.521499176025394 158.44499993133545,37.521499176025394 C158.70399993133546,37.521499176025394 159.00999993133544,37.44079917602539 159.36499993133546,37.27929917602539 C159.72099993133546,37.11789917602539 160.04299993133546,36.90809917602539 160.33399993133546,36.64979917602539 C160.51199993133545,36.48829917602539 160.68899993133545,36.40759917602539 160.86699993133544,36.40759917602539 C161.05999993133545,36.40759917602539 161.21399993133545,36.52059917602539 161.32699993133545,36.74659917602539 C161.45599993133544,36.95649917602539 161.52099993133544,37.21479917602539 161.52099993133544,37.521499176025394 C161.52099993133544,37.82819917602539 161.45599993133544,38.12689917602539 161.32699993133545,38.41739917602539 C161.21399993133545,38.70799917602539 161.03599993133545,38.95009917602539 160.79399993133546,39.14389917602539 C159.95499993133544,39.83799917602539 159.00199993133546,40.18509917602539 157.93699993133544,40.18509917602539 C156.40299993133544,40.18509917602539 155.28099993133546,39.547399176025394 154.57099993133545,38.27209917602539 C153.86099993133544,36.98069917602539 153.50599993133545,35.30179917602539 153.50599993133545,33.23559917602539 C153.50599993133545,32.52529917602539 153.52999993133545,31.80689917602539 153.57799993133546,31.08049917602539 H152.63399993133544 C152.14999993133546,31.08049917602539 151.81899993133544,30.991699176025392 151.64099993133544,30.814099176025394 C151.47999993133544,30.63649917602539 151.39899993133545,30.35399917602539 151.39899993133545,29.96659917602539 C151.39899993133545,29.062599176025394 151.76199993133545,28.61059917602539 152.48899993133546,28.61059917602539 H153.86899993133545 C154.14299993133545,26.834899176025388 154.56299993133544,25.21249917602539 155.12799993133544,23.743499176025388 C155.69299993133544,22.274499176025394 156.37099993133546,21.10419917602539 157.16199993133546,20.23239917602539 C157.96899993133545,19.360699176025392 158.83299993133545,18.92489917602539 159.75299993133544,18.92489917602539 C160.43099993133544,18.92489917602539 160.96399993133545,19.223499176025392 161.35099993133545,19.82079917602539 C161.73799993133545,20.418099176025393 161.93199993133544,21.16869917602539 161.93199993133544,22.072699176025388 C161.93199993133544,24.57489917602539 160.88299993133546,26.754199176025388 158.78399993133544,28.61059917602539 H161.49599993133546 C161.75499993133545,28.61059917602539 161.93999993133545,28.66709917602539 162.05299993133545,28.780099176025388 C162.16599993133545,28.893099176025387 162.22299993133544,29.102999176025392 162.22299993133544,29.40969917602539 C162.22299993133544,30.52349917602539 161.31099993133546,31.08049917602539 159.48699993133545,31.08049917602539 H156.53199993133546 zM159.09899993133544,21.249499176025388 C158.85699993133545,21.249499176025388 158.58299993133545,21.556199176025387 158.27599993133546,22.169599176025393 C157.98499993133544,22.76689917602539 157.70299993133546,23.606299176025388 157.42799993133545,24.68789917602539 C157.16999993133544,25.753299176025394 156.95199993133545,26.93979917602539 156.77499993133546,28.24739917602539 C157.72699993133546,27.424099176025393 158.43699993133544,26.50399917602539 158.90499993133545,25.486999176025392 C159.38999993133544,24.45379917602539 159.63199993133546,23.51749917602539 159.63199993133546,22.67809917602539 C159.63199993133546,21.725699176025394 159.45399993133546,21.249499176025388 159.09899993133544,21.249499176025388 z" fill="#E7E7E7" id="svg_2" class=""/></g></svg>