<svg width="26" height="25" viewBox="0 0 26 25" fill="none" xmlns="http://www.w3.org/2000/svg">
<g clip-path="url(#clip0_5_201)">
<path d="M12.5312 4.56279V19.6326C12.5312 20.4614 11.9281 20.7907 11.1914 20.3642L6.05859 17.3939C5.32188 16.9675 4.01562 16.6186 3.15625 16.6186H2.375C1.51562 16.6186 0.8125 15.9405 0.8125 15.1116V9.08372C0.8125 8.25488 1.51562 7.57674 2.375 7.57674H3.15625C4.01562 7.57674 5.32188 7.22787 6.05859 6.8014L11.1914 3.83115C11.9281 3.40467 12.5312 3.73395 12.5312 4.56279ZM20.8172 4.10617C20.207 3.5177 19.218 3.5177 18.6078 4.10617C17.9977 4.69465 17.9977 5.64856 18.6078 6.23704C20.2305 7.80279 21.125 9.88392 21.125 12.0977C21.125 14.3114 20.2305 16.3926 18.6078 17.9583C17.9977 18.5468 17.9977 19.5007 18.6078 20.0892C18.9133 20.3838 19.3125 20.5307 19.7125 20.5307C20.1125 20.5307 20.5117 20.3838 20.8172 20.0892C23.0305 17.9545 24.25 15.1169 24.25 12.0977C24.25 9.07844 23.0305 6.2408 20.8172 4.10617ZM17.5023 7.30247C16.8922 6.71399 15.9031 6.71399 15.293 7.30247C14.6828 7.89094 14.6828 8.84486 15.293 9.43333C16.0305 10.1454 16.4375 11.091 16.4375 12.0977C16.4375 13.1043 16.0312 14.05 15.2937 14.7613C14.6836 15.3497 14.6836 16.3036 15.2937 16.8921C15.5992 17.1867 15.9984 17.3337 16.3984 17.3337C16.7984 17.3337 17.1977 17.1867 17.5031 16.8921C18.8313 15.6119 19.5625 13.9091 19.5625 12.0977C19.5625 10.2863 18.8305 8.5834 17.5023 7.30247Z" fill="#000000"/>
</g>
<defs>
<clipPath id="clip0_5_201">
<rect width="25" height="24.1116" fill="white" transform="translate(0.03125 0.0418549)"/>
</clipPath>
</defs>
</svg>
