<svg width="24" height="24" viewBox="0 0 24 24" fill="none" xmlns="http://www.w3.org/2000/svg">
<g clip-path="url(#clip0_58_2)">
<path d="M12 0C9.62662 0 7.30655 0.703788 5.33316 2.02236C3.35977 3.34094 1.8217 5.21509 0.913445 7.4078C0.00519371 9.60051 -0.232446 12.0133 0.230576 14.3411C0.693599 16.6689 1.83649 18.8071 3.51472 20.4853C5.19295 22.1635 7.33114 23.3064 9.65892 23.7694C11.9867 24.2324 14.3995 23.9948 16.5922 23.0866C18.7849 22.1783 20.6591 20.6402 21.9776 18.6668C23.2962 16.6935 24 14.3734 24 12C24 8.8174 22.7357 5.76516 20.4853 3.51472C18.2348 1.26428 15.1826 0 12 0V0ZM11.52 17L6 12.79L7.83 10.42L11.14 13L15.65 7.92L17.89 9.92L11.52 17Z" fill="#CBCBCB"/>
</g>
<defs>
<clipPath id="clip0_58_2">
<rect width="24" height="24" fill="white"/>
</clipPath>
</defs>
</svg>
