<?xml version="1.0" encoding="iso-8859-1"?>
<!-- Generator: Adobe Illustrator 16.0.0, SVG Export Plug-In . SVG Version: 6.00 Build 0)  -->
<!DOCTYPE svg PUBLIC "-//W3C//DTD SVG 1.1//EN" "http://www.w3.org/Graphics/SVG/1.1/DTD/svg11.dtd">
<svg version="1.1" id="Capa_1" xmlns="http://www.w3.org/2000/svg" xmlns:xlink="http://www.w3.org/1999/xlink" x="0px" y="0px"
	 width="43.597px" height="43.596px" viewBox="0 0 43.597 43.596" style="enable-background:new 0 0 43.597 43.596;"
	 xml:space="preserve" fill="#E7E7E7">
<g>
	<path d="M42.571,32.846l-9.724,9.725c-0.655,0.655-1.547,1.024-2.476,1.024c-0.93,0-1.818-0.369-2.477-1.024l-6.097-6.1l-6.1,6.1
		c-0.656,0.655-1.547,1.024-2.475,1.024c-0.928,0-1.818-0.369-2.475-1.024l-9.723-9.725c-1.367-1.366-1.367-3.583,0-4.948l6.1-6.1
		l-6.099-6.1c-1.367-1.366-1.367-3.582,0-4.949l9.723-9.724c1.313-1.313,3.637-1.313,4.949,0l6.1,6.099l6.099-6.098
		c1.366-1.367,3.583-1.366,4.949,0l9.724,9.723c0.656,0.656,1.023,1.546,1.023,2.475c0,0.929-0.367,1.818-1.024,2.475l-6.1,6.099
		l6.1,6.1C43.938,29.263,43.938,31.48,42.571,32.846z"/>
</g>
<g>
</g>
<g>
</g>
<g>
</g>
<g>
</g>
<g>
</g>
<g>
</g>
<g>
</g>
<g>
</g>
<g>
</g>
<g>
</g>
<g>
</g>
<g>
</g>
<g>
</g>
<g>
</g>
<g>
</g>
</svg>
