<?xml version="1.0" encoding="utf-8"?>
<!-- Svg Vector Icons : http://www.onlinewebfonts.com/icon -->
<!DOCTYPE svg PUBLIC "-//W3C//DTD SVG 1.1//EN" "http://www.w3.org/Graphics/SVG/1.1/DTD/svg11.dtd">
<svg version="1.1" xmlns="http://www.w3.org/2000/svg" xmlns:xlink="http://www.w3.org/1999/xlink" x="0px" y="0px" viewBox="0 0 1000 1000" enable-background="new 0 0 1000 1000" xml:space="preserve">
<metadata> Svg Vector Icons : http://www.onlinewebfonts.com/icon </metadata>
<g><path d="M657.9,483.8c44.7,0,81-36.3,81-81V95c0-44.7-36.3-81-81-81H350.2c-44.7,0-81,36.3-81,81v307.8c0,44.7,36.3,81,81,81H657.9z M317.8,402.8V95c0-17.9,14.5-32.4,32.4-32.4h307.8c17.9,0,32.4,14.5,32.4,32.4v307.8c0,17.9-14.5,32.4-32.4,32.4H350.2C332.3,435.2,317.8,420.7,317.8,402.8z"/><path d="M10,597.2V905c0,44.7,36.3,81,81,81h307.8c44.7,0,81-36.3,81-81V597.2c0-44.7-36.3-81-81-81H91C46.3,516.2,10,552.5,10,597.2z M431.2,597.2V905c0,17.9-14.5,32.4-32.4,32.4H91c-17.9,0-32.4-14.5-32.4-32.4V597.2c0-17.9,14.5-32.4,32.4-32.4h307.8C416.6,564.8,431.2,579.3,431.2,597.2z"/><path d="M990,597.2c0-44.7-36.3-81-81-81H601.2c-44.7,0-81,36.3-81,81V905c0,44.7,36.3,81,81,81H909c44.7,0,81-36.3,81-81V597.2z M941.4,905c0,17.9-14.5,32.4-32.4,32.4H601.2c-17.9,0-32.4-14.5-32.4-32.4V597.2c0-17.9,14.5-32.4,32.4-32.4H909c17.9,0,32.4,14.5,32.4,32.4V905z"/><path d="M372.6,391.9c3.5,1.7,7.2,2.5,10.8,2.5c8.9,0,17.5-4.9,21.8-13.5l22-44.3h153.6l22,44.3c4.2,8.5,12.8,13.5,21.8,13.5c3.6,0,7.3-0.8,10.8-2.5c12-6,16.9-20.6,10.9-32.6L525.8,116.9c-0.1-0.2-0.2-0.4-0.3-0.6c-0.4-0.8-0.9-1.5-1.4-2.2c-0.4-0.6-0.8-1.3-1.3-1.8c-0.5-0.6-1-1.1-1.6-1.6c-0.6-0.6-1.2-1.2-1.8-1.7c-0.5-0.4-1.1-0.8-1.6-1.2c-0.8-0.5-1.5-1.1-2.4-1.5c-0.2-0.1-0.3-0.2-0.5-0.3c-0.5-0.2-0.9-0.3-1.4-0.5c-0.8-0.4-1.7-0.7-2.5-1c-0.7-0.2-1.5-0.4-2.2-0.5c-0.8-0.2-1.6-0.3-2.4-0.4c-0.8-0.1-1.6-0.1-2.3-0.1c-0.8,0-1.6,0-2.3,0.1c-0.8,0.1-1.6,0.2-2.4,0.4c-0.7,0.1-1.5,0.3-2.2,0.5c-0.9,0.3-1.7,0.6-2.6,1c-0.4,0.2-0.9,0.3-1.3,0.5c-0.2,0.1-0.3,0.2-0.5,0.3c-0.9,0.5-1.7,1-2.4,1.5c-0.5,0.4-1.1,0.7-1.6,1.1c-0.7,0.6-1.3,1.2-1.9,1.8c-0.5,0.5-1,1-1.5,1.6c-0.5,0.6-0.9,1.2-1.3,1.9c-0.5,0.7-1,1.4-1.4,2.2c-0.1,0.2-0.2,0.4-0.3,0.6L361.7,359.3C355.7,371.3,360.6,385.9,372.6,391.9z M504,182.3l52.6,105.8H451.4L504,182.3z"/><path d="M186.8,902.8h61.6c52.4,0,95-42.6,95-95c0-36.3-20.5-67.9-50.5-83.9c9.6-13,15.4-28.9,15.4-46.2c0-43.2-35.1-78.3-78.3-78.3h-43.2c-18,0-33.2,11.9-38.4,28.3c-1.3,3-2.1,6.3-2.1,9.8v2.4v75.6v37.8v109v1.4c0,1.9,0.3,3.8,0.7,5.6C150.4,888.3,166.9,902.8,186.8,902.8z M294.8,807.8c0,25.6-20.8,46.4-46.4,46.4h-53.5v-92.8h53.5C274,761.4,294.8,782.2,294.8,807.8z M259.7,677.7c0,16.4-13.3,29.7-29.7,29.7h-35.1V648H230C246.4,648,259.7,661.3,259.7,677.7z"/><path d="M840.1,821.2c-17.9,16.9-41.4,26.2-66,26.2c-53.1,0-96.3-43.2-96.3-96.3s43.2-96.3,96.3-96.3c23.6,0,46.3,8.6,63.9,24.2c10,8.9,25.4,8,34.3-2c8.9-10,8-25.4-2-34.3c-26.5-23.5-60.7-36.5-96.1-36.5c-79.9,0-144.9,65-144.9,144.9c0,79.9,65,144.9,144.9,144.9c37.1,0,72.4-14,99.3-39.4c9.8-9.2,10.2-24.6,1-34.4C865.3,812.5,849.9,812,840.1,821.2z"/></g>
</svg>