<svg width="24" height="24" viewBox="0 0 24 24" fill="none" xmlns="http://www.w3.org/2000/svg">
<g clip-path="url(#clip0_58_4)">
<path d="M23.9759 9.26438C23.9176 9.08517 23.7629 8.95465 23.5762 8.92796L15.8785 7.81709L12.4436 0.839464C12.3606 0.670387 12.1885 0.563354 12.0002 0.563354C11.8118 0.563354 11.6398 0.670387 11.5567 0.839217L8.12153 7.81685L0.424088 8.92771C0.237708 8.95441 0.0827213 9.08517 0.0243849 9.26413C-0.0337043 9.44334 0.0147446 9.64011 0.149957 9.77136L5.7243 15.1944L4.40234 22.8582C4.3702 23.0436 4.44658 23.2315 4.59885 23.342C4.75161 23.453 4.95332 23.4676 5.11992 23.3796L12.0002 19.7538L18.8804 23.3796C18.9528 23.4176 19.0317 23.4364 19.111 23.4364C19.2136 23.4364 19.3154 23.4045 19.4017 23.3417C19.554 23.2313 19.6306 23.0434 19.5982 22.858L18.2763 15.1942L23.8506 9.77112C23.9851 9.64011 24.034 9.44334 23.9759 9.26438ZM20.5081 10.7369L16.5032 14.6328L17.4529 20.1384C17.4759 20.2722 17.421 20.4069 17.3117 20.4865C17.2499 20.5315 17.1765 20.554 17.1029 20.554C17.0463 20.554 16.9894 20.5404 16.9373 20.5132L11.994 17.9086L7.05096 20.5137C6.93107 20.5769 6.78597 20.5663 6.67647 20.4867C6.56721 20.4076 6.51233 20.2724 6.53532 20.1392L7.48502 14.6333L3.47983 10.7369C3.38293 10.6422 3.34783 10.5013 3.38985 10.3723C3.43163 10.2435 3.54286 10.1498 3.67684 10.1305L9.20718 9.33236L11.6751 4.31938C11.7349 4.19801 11.8585 4.12113 11.994 4.12113C12.1292 4.12113 12.2525 4.19801 12.3126 4.31938L14.7808 9.33236L20.3111 10.1305C20.4451 10.1496 20.5561 10.2435 20.5981 10.3723C20.6401 10.5011 20.6048 10.642 20.5081 10.7369Z" fill="yellow"/>
</g>
<defs>
<clipPath id="clip0_58_4">
<rect width="24" height="24" fill="yellow"/>
</clipPath>
</defs>
</svg>
