<svg width="24" height="24" viewBox="0 0 24 24" fill="none" xmlns="http://www.w3.org/2000/svg">
<g clip-path="url(#clip0_5_72)">
<path d="M20.5539 17.4546H19.3038V7.41375C19.3038 3.32573 15.9781 0 11.8903 0H4.06224C3.4598 0 2.97137 0.488438 2.97137 1.09092C2.97137 1.69341 3.4598 2.18184 4.06229 2.18184H4.69608V10.9938C4.69608 11.5963 5.18452 12.0847 5.78701 12.0847H7.62455C7.91391 12.0847 8.19141 11.9697 8.39588 11.7652L9.89982 10.2613V12.8899L5.33518 17.4546H3.44612C2.84363 17.4546 2.35519 17.943 2.35519 18.5455V22.9092C2.35519 23.5117 2.84363 24.0001 3.44612 24.0001H20.5539C21.1564 24.0001 21.6448 23.5117 21.6448 22.9092V18.5455C21.6448 17.943 21.1564 17.4546 20.5539 17.4546ZM11.7621 14.1131C11.9668 13.9085 12.0817 13.6311 12.0817 13.3417V7.62755C12.0817 7.18631 11.8159 6.78848 11.4082 6.61969C11.0007 6.45089 10.5313 6.54413 10.2193 6.85613L7.17263 9.90277H6.87788V2.1818H11.8902C14.775 2.1818 17.1219 4.52878 17.1219 7.4137V17.4545H8.42068L11.7621 14.1131ZM19.463 21.8182H4.53704V19.6364H19.463V21.8182Z" fill="#E7E7E7"/>
</g>
<defs>
<clipPath id="clip0_5_72">
<rect width="24" height="24" fill="white"/>
</clipPath>
</defs>
</svg>
