<svg width="24" height="24" viewBox="0 0 24 24" fill="none" xmlns="http://www.w3.org/2000/svg">
<path d="M23.6791 9.04566L20.7703 6.13898C20.5658 5.93466 20.2886 5.81981 19.9995 5.81977L13.0908 5.81794V1.09078C13.0908 0.488391 12.6024 0 12 0H4.00078C3.71152 0 3.43402 0.114891 3.2295 0.319547L0.320722 3.22833C0.116066 3.43289 0.00117493 3.71048 0.00117493 3.9998C0.00117493 4.28911 0.1163 4.56666 0.320909 4.77112L3.22969 7.67798C3.43416 7.88231 3.71138 7.99716 4.00046 7.9972L10.9091 7.99889V11.6352H4.00078C3.71152 11.6352 3.43402 11.7501 3.2295 11.9547L0.320722 14.8635C0.116066 15.0681 0.00117493 15.3457 0.00117493 15.635C0.00117493 15.9243 0.1163 16.2019 0.320909 16.4063L3.22969 19.3132C3.43416 19.5175 3.71138 19.6324 4.00046 19.6324L10.9091 19.6341V22.9092C10.9091 23.5116 11.3975 24 11.9999 24C12.6023 24 13.0907 23.5116 13.0907 22.9092V18.5478C13.0907 18.5471 13.0906 18.5465 13.0906 18.5458C13.0906 18.545 13.0907 18.5443 13.0907 18.5436V13.8168H19.9992C20.2885 13.8168 20.566 13.7019 20.7705 13.4972L23.6793 10.5885C23.8839 10.3839 23.9989 10.1063 23.9988 9.81698C23.9988 9.52763 23.8838 9.25012 23.6791 9.04566ZM10.9093 17.4525L4.45261 17.451L2.63489 15.6345L4.45266 13.8168H10.9093V17.4525ZM10.9093 5.81733L4.45261 5.81578L2.63489 3.99933L4.45266 2.18161H10.9093V5.81733ZM19.5475 11.6352H13.0909V7.9995L19.5475 8.00119L21.3652 9.8175L19.5475 11.6352Z" fill="#E7E7E7"/>
</svg>