<svg width="32" height="32" viewBox="0 0 32 32" fill="none" xmlns="http://www.w3.org/2000/svg">
<path d="M10 8.5V15H19.5856L16.2931 11.7069C16.1135 11.5178 16.0148 11.2661 16.0182 11.0053C16.0215 10.7445 16.1266 10.4954 16.311 10.311C16.4954 10.1266 16.7445 10.0215 17.0053 10.0182C17.2661 10.0148 17.5178 10.1135 17.7069 10.2931L22.7069 15.2931C22.8943 15.4806 22.9995 15.7349 22.9995 16C22.9995 16.2651 22.8943 16.5194 22.7069 16.7069L17.7069 21.7069C17.5178 21.8865 17.2661 21.9852 17.0053 21.9818C16.7445 21.9785 16.4954 21.8734 16.311 21.689C16.1266 21.5046 16.0215 21.2555 16.0182 20.9947C16.0148 20.7339 16.1135 20.4822 16.2931 20.2931L19.5856 17H10V23.5C10.001 24.428 10.3701 25.3176 11.0262 25.9738C11.6824 26.6299 12.572 26.999 13.5 27H26.5C27.428 26.999 28.3176 26.6299 28.9738 25.9738C29.6299 25.3176 29.999 24.428 30 23.5V8.5C29.999 7.57205 29.6299 6.68238 28.9738 6.02622C28.3176 5.37006 27.428 5.00099 26.5 5H13.5C12.572 5.00099 11.6824 5.37006 11.0262 6.02622C10.3701 6.68238 10.001 7.57205 10 8.5Z" fill="#E7E7E7"/>
<path d="M3 15C2.73478 15 2.48043 15.1054 2.29289 15.2929C2.10536 15.4804 2 15.7348 2 16C2 16.2652 2.10536 16.5196 2.29289 16.7071C2.48043 16.8946 2.73478 17 3 17H10V15H3Z" fill="#E7E7E7"/>
</svg>
