<svg width="166" height="92" viewBox="0 0 166 92" fill="none" xmlns="http://www.w3.org/2000/svg">
<path d="M9.088 56.328H19.008V61H3.328V20.936H9.088V56.328ZM26.482 56.328H38.066V61H20.658V20.936H37.618V25.608H26.482V37.96H35.698V42.632H26.482V56.328ZM55.3955 61L53.7955 51.72H45.3475L43.8755 61H38.1155L45.2195 20.936H53.6035L61.2195 61H55.3955ZM46.0515 47.048H53.0275L49.3795 25.928L46.0515 47.048ZM69.1405 44.808V61H63.3805V20.936H76.5005C80.4685 20.936 82.4525 22.8133 82.4525 26.568V39.112C82.4525 42.3547 81.0232 44.2107 78.1645 44.68L84.5005 61H78.2925L72.2765 44.808H69.1405ZM69.1405 25.608V40.2H74.7725C75.5405 40.2 76.0525 40.0933 76.3085 39.88C76.5645 39.624 76.6925 39.112 76.6925 38.344V27.464C76.6925 26.696 76.5645 26.2053 76.3085 25.992C76.0525 25.736 75.5405 25.608 74.7725 25.608H69.1405ZM101.108 20.936H106.42V61H100.596L92.1475 32.072V61H86.8355V20.936H92.9155L101.108 49.032V20.936Z" fill="#E7E7E7"/>
<path d="M129.67 53.6388C128.637 55.2208 127.386 56.6172 125.917 57.8279L128.023 60.1525C128.395 60.5399 128.58 60.9435 128.58 61.3632C128.58 61.7668 128.419 62.0977 128.096 62.356C127.773 62.6304 127.345 62.7676 126.813 62.7676C126.07 62.7676 125.505 62.5416 125.118 62.0896L123.084 59.6924C121.179 60.6449 119.355 61.1211 117.611 61.1211C116.32 61.1211 115.19 60.9193 114.221 60.5157C113.253 60.1121 112.502 59.5552 111.969 58.8449C111.453 58.1346 111.194 57.3436 111.194 56.4719C111.194 55.2935 111.558 54.1958 112.284 53.1788C113.027 52.1456 114.229 51.1286 115.892 50.1278C114.956 48.4166 114.488 46.9072 114.488 45.5997C114.488 44.4374 114.73 43.4123 115.214 42.5245C115.698 41.6366 116.368 40.9505 117.224 40.4662C118.096 39.9819 119.088 39.7398 120.202 39.7398C121.623 39.7398 122.72 40.1514 123.495 40.9747C124.286 41.7819 124.682 42.8957 124.682 44.3163C124.682 45.4947 124.335 46.6086 123.641 47.6579C122.963 48.691 121.752 49.7484 120.008 50.83C121.042 52.2344 122.406 53.8891 124.101 55.7939C125.166 54.8415 126.223 53.6388 127.273 52.186C127.45 51.9277 127.66 51.7501 127.902 51.6533C128.144 51.5403 128.443 51.4838 128.798 51.4838C129.735 51.4838 130.203 51.7501 130.203 52.2828C130.203 52.6218 130.025 53.0738 129.67 53.6388ZM120.033 42.2823C119.274 42.2823 118.677 42.5729 118.241 43.154C117.805 43.719 117.587 44.4293 117.587 45.2849C117.587 46.3019 117.926 47.4157 118.604 48.6265C119.863 47.8839 120.719 47.1655 121.171 46.4714C121.623 45.7772 121.849 45.0185 121.849 44.1952C121.849 43.598 121.695 43.1298 121.389 42.7908C121.082 42.4518 120.63 42.2823 120.033 42.2823ZM117.757 58.4575C119.016 58.4575 120.218 58.1831 121.364 57.6342C119.653 55.5841 118.305 53.8326 117.321 52.3797C115.497 53.5743 114.584 54.8173 114.584 56.1087C114.584 56.8513 114.867 57.4324 115.432 57.8521C115.997 58.2557 116.772 58.4575 117.757 58.4575ZM145.617 55.6002C145.827 55.6002 145.989 55.6971 146.102 55.8908C146.231 56.0845 146.295 56.3508 146.295 56.6898C146.295 57.3356 146.142 57.836 145.835 58.1911C145.173 58.9983 144.447 59.6924 143.656 60.2736C142.865 60.8386 142.082 61.1211 141.307 61.1211C140.08 61.1211 139.144 60.4027 138.498 58.966C137.82 59.8216 137.223 60.3946 136.706 60.6852C136.206 60.9758 135.617 61.1211 134.939 61.1211C133.954 61.1211 133.139 60.7579 132.493 60.0314C131.863 59.2889 131.549 58.3283 131.549 57.1499C131.549 55.8585 131.823 54.6639 132.372 53.5662C132.921 52.4523 133.671 51.5483 134.624 50.8542C135.592 50.1439 136.674 49.7242 137.869 49.595C138.175 46.4633 138.756 43.7917 139.612 41.5801C140.484 39.3524 141.622 38.2385 143.026 38.2385C143.72 38.2385 144.294 38.5533 144.746 39.1829C145.214 39.8124 145.448 40.7649 145.448 42.0402C145.448 43.8482 145.004 45.9629 144.116 48.3843C143.228 50.8058 142.042 53.2918 140.556 55.8423C140.621 56.7786 140.758 57.4486 140.968 57.8521C141.194 58.2557 141.477 58.4575 141.816 58.4575C142.251 58.4575 142.695 58.2638 143.147 57.8763C143.599 57.4889 144.205 56.8432 144.963 55.9392C145.157 55.7132 145.375 55.6002 145.617 55.6002ZM142.76 40.6115C142.453 40.6115 142.146 41.1604 141.84 42.2581C141.533 43.3397 141.267 44.7602 141.041 46.5198C140.831 48.2794 140.677 50.1197 140.581 52.0407C142.389 48.1018 143.293 44.9378 143.293 42.5487C143.293 41.9352 143.236 41.459 143.123 41.12C143.026 40.781 142.905 40.6115 142.76 40.6115ZM135.786 58.6754C136.093 58.6754 136.4 58.5544 136.706 58.3122C137.013 58.0539 137.4 57.5858 137.869 56.9078C137.707 56.0361 137.626 55.0594 137.626 53.9778C137.626 53.5904 137.643 52.9608 137.675 52.0891C136.787 52.3635 136.044 52.9608 135.447 53.881C134.866 54.785 134.575 55.7939 134.575 56.9078C134.575 58.0862 134.979 58.6754 135.786 58.6754ZM156.675 53.5662C156.885 53.5662 157.046 53.6711 157.159 53.881C157.272 54.0908 157.328 54.3572 157.328 54.6801C157.328 55.4549 157.094 55.915 156.626 56.0603C155.658 56.3993 154.592 56.593 153.43 56.6414C153.123 57.9974 152.518 59.0871 151.614 59.9104C150.71 60.7175 149.685 61.1211 148.539 61.1211C147.57 61.1211 146.739 60.887 146.045 60.4189C145.367 59.9507 144.85 59.3292 144.495 58.5544C144.14 57.7795 143.962 56.9401 143.962 56.0361C143.962 54.8092 144.196 53.7196 144.664 52.7671C145.132 51.7985 145.778 51.0479 146.601 50.5152C147.425 49.9663 148.337 49.6919 149.338 49.6919C150.565 49.6919 151.549 50.1197 152.292 50.9753C153.051 51.8147 153.495 52.8559 153.624 54.0989C154.382 54.0505 155.286 53.8891 156.336 53.6146C156.465 53.5823 156.578 53.5662 156.675 53.5662ZM148.732 58.5544C149.249 58.5544 149.693 58.3445 150.064 57.9248C150.452 57.5051 150.71 56.8997 150.839 56.1087C150.339 55.7697 149.951 55.3258 149.677 54.7769C149.418 54.2281 149.289 53.6469 149.289 53.0335C149.289 52.7752 149.314 52.5169 149.362 52.2586H149.241C148.595 52.2586 148.054 52.5734 147.618 53.203C147.199 53.8164 146.989 54.6881 146.989 55.8181C146.989 56.706 147.158 57.384 147.497 57.8521C147.853 58.3203 148.264 58.5544 148.732 58.5544ZM159.86 52.0165C159.828 52.8236 159.812 53.4532 159.812 53.9052C159.812 55.0675 159.868 55.9796 159.981 56.6414C160.111 57.2871 160.312 57.7553 160.587 58.0458C160.877 58.3203 161.273 58.4575 161.773 58.4575C162.032 58.4575 162.338 58.3768 162.693 58.2153C163.049 58.0539 163.371 57.8441 163.662 57.5858C163.84 57.4243 164.017 57.3436 164.195 57.3436C164.388 57.3436 164.542 57.4566 164.655 57.6826C164.784 57.8925 164.849 58.1508 164.849 58.4575C164.849 58.7642 164.784 59.0629 164.655 59.3534C164.542 59.644 164.364 59.8861 164.122 60.0799C163.283 60.774 162.33 61.1211 161.265 61.1211C159.731 61.1211 158.609 60.4834 157.899 59.2081C157.189 57.9167 156.834 56.2378 156.834 54.1716C156.834 53.4613 156.858 52.7429 156.906 52.0165H155.962C155.478 52.0165 155.147 51.9277 154.969 51.7501C154.808 51.5725 154.727 51.29 154.727 50.9026C154.727 49.9986 155.09 49.5466 155.817 49.5466H157.197C157.471 47.7709 157.891 46.1485 158.456 44.6795C159.021 43.2105 159.699 42.0402 160.49 41.1684C161.297 40.2967 162.161 39.8609 163.081 39.8609C163.759 39.8609 164.292 40.1595 164.679 40.7568C165.066 41.3541 165.26 42.1047 165.26 43.0087C165.26 45.5109 164.211 47.6902 162.112 49.5466H164.824C165.083 49.5466 165.268 49.6031 165.381 49.7161C165.494 49.8291 165.551 50.039 165.551 50.3457C165.551 51.4595 164.639 52.0165 162.815 52.0165H159.86ZM162.427 42.1855C162.185 42.1855 161.911 42.4922 161.604 43.1056C161.313 43.7029 161.031 44.5423 160.756 45.6239C160.498 46.6893 160.28 47.8758 160.103 49.1834C161.055 48.3601 161.765 47.44 162.233 46.423C162.718 45.3898 162.96 44.4535 162.96 43.6141C162.96 42.6617 162.782 42.1855 162.427 42.1855Z" fill="#E7E7E7"/>
</svg>
