<svg width="24" height="24" viewBox="0 0 24 24" fill="none" xmlns="http://www.w3.org/2000/svg">
<path d="M22.1519 3.00253H1.8481C0.83038 3.00253 0 3.83291 0 4.85063V19.1494C0 20.1671 0.83038 20.9975 1.8481 20.9975H22.1519C23.1696 20.9975 24 20.1671 24 19.1494V4.85063C24 3.83291 23.1696 3.00253 22.1519 3.00253ZM21.8835 4.36962L12.1266 12.7139L2.36962 4.36962H21.8835ZM22.6329 19.1494C22.6329 19.4127 22.4152 19.6304 22.1519 19.6304H1.8481C1.58481 19.6304 1.36709 19.4127 1.36709 19.1494V5.31139L11.681 14.1316C11.6861 14.1367 11.6962 14.1418 11.7013 14.1468C11.7063 14.1519 11.7165 14.157 11.7215 14.162C11.7367 14.1722 11.7468 14.1823 11.762 14.1873C11.7671 14.1924 11.7722 14.1924 11.7772 14.1975C11.7975 14.2076 11.8177 14.2177 11.838 14.2278C11.843 14.2278 11.8481 14.2329 11.8532 14.2329C11.8684 14.238 11.8835 14.2481 11.9038 14.2532C11.9089 14.2532 11.919 14.2582 11.9241 14.2582C11.9392 14.2633 11.9544 14.2684 11.9696 14.2684C11.9747 14.2684 11.9848 14.2734 11.9899 14.2734C12.0051 14.2785 12.0253 14.2785 12.0405 14.2835C12.0456 14.2835 12.0506 14.2835 12.0557 14.2835C12.0759 14.2835 12.1013 14.2886 12.1215 14.2886C12.1418 14.2886 12.1671 14.2886 12.1873 14.2835C12.1924 14.2835 12.1975 14.2835 12.2025 14.2835C12.2177 14.2835 12.238 14.2785 12.2532 14.2734C12.2582 14.2734 12.2684 14.2684 12.2734 14.2684C12.2886 14.2633 12.3038 14.2582 12.319 14.2582C12.3241 14.2582 12.3342 14.2532 12.3392 14.2532C12.3544 14.2481 12.3696 14.243 12.3899 14.2329C12.3949 14.2329 12.4 14.2278 12.4051 14.2278C12.4253 14.2177 12.4456 14.2076 12.4658 14.1975C12.4709 14.1924 12.4759 14.1924 12.481 14.1873C12.4962 14.1772 12.5063 14.1722 12.5215 14.162C12.5266 14.157 12.5367 14.1519 12.5418 14.1468C12.5468 14.1418 12.557 14.1367 12.562 14.1316L22.6329 5.52912V19.1494Z" fill="#798086"/>
</svg>
