<svg width="24" height="24" viewBox="0 0 24 24" fill="none" xmlns="http://www.w3.org/2000/svg">
<path d="M10.5597 12.1646C13.9392 12.1644 15.1551 8.78067 15.4734 6.00114C15.8656 2.57706 14.2463 0 10.5597 0C6.87348 0 5.25344 2.57686 5.64587 6.00114C5.9645 8.78067 7.18011 12.1649 10.5597 12.1646Z" fill="#CBCBCB"/>
<path d="M17.9493 13.5731C18.058 13.5731 18.1661 13.5764 18.2734 13.5823C18.1125 13.3529 17.9264 13.1506 17.7085 12.9879C17.0592 12.5032 16.2181 12.3442 15.4747 12.0521C15.1127 11.9099 14.7887 11.7687 14.4844 11.6079C13.4576 12.734 12.1186 13.323 10.5593 13.3232C9.0005 13.3232 7.6616 12.7341 6.63489 11.6079C6.33066 11.7687 6.0065 11.9099 5.64466 12.0521C4.90117 12.3443 4.06019 12.5032 3.41078 12.9879C2.28772 13.8261 1.99748 15.7118 1.76944 16.9981C1.58125 18.0599 1.45482 19.1435 1.41791 20.222C1.38933 21.0574 1.8018 21.1745 2.5007 21.4267C3.3758 21.7423 4.27937 21.9767 5.18901 22.1687C6.94576 22.5397 8.75658 22.8248 10.5596 22.8375C11.4332 22.8313 12.3087 22.7608 13.1789 22.648C12.5345 21.7144 12.1566 20.5835 12.1566 19.3658C12.1567 16.1717 14.7552 13.5731 17.9493 13.5731Z" fill="#CBCBCB"/>
<path d="M17.9493 14.7317C15.39 14.7317 13.3151 16.8066 13.3151 19.3658C13.3151 21.9251 15.3899 24 17.9493 24C20.5086 24 22.5835 21.9251 22.5835 19.3658C22.5834 16.8065 20.5086 14.7317 17.9493 14.7317ZM19.9767 20.1609H18.7444V21.3932C18.7444 21.8324 18.3884 22.1884 17.9493 22.1884C17.5102 22.1884 17.1542 21.8324 17.1542 21.3932V20.1609H15.9219C15.4827 20.1609 15.1267 19.8049 15.1267 19.3658C15.1267 18.9266 15.4827 18.5706 15.9219 18.5706H17.1542V17.3383C17.1542 16.8992 17.5102 16.5432 17.9493 16.5432C18.3885 16.5432 18.7444 16.8992 18.7444 17.3383V18.5706H19.9767C20.4159 18.5706 20.7719 18.9266 20.7719 19.3658C20.7718 19.805 20.4159 20.1609 19.9767 20.1609Z" fill="#CBCBCB"/>
</svg>
