<svg width="24" height="24" viewBox="0 0 24 24" fill="none" xmlns="http://www.w3.org/2000/svg">
<path d="M22.1381 6.17947H1.8619C0.835242 6.17947 0 7.01472 0 8.04137V15.9586C0 16.9853 0.835242 17.8206 1.8619 17.8206H22.138C23.1647 17.8206 24 16.9854 24 15.9586V8.04137C24 7.01472 23.1648 6.17947 22.1381 6.17947ZM7.79417 12.4711C8.1137 12.65 8.22775 13.0541 8.0488 13.3737C7.92724 13.5907 7.70187 13.7129 7.46961 13.7129C7.35998 13.7129 7.24875 13.6857 7.14628 13.6282L6.25843 13.1311V13.945C6.25843 14.3112 5.96154 14.6081 5.59533 14.6081C5.22912 14.6081 4.93223 14.3112 4.93223 13.945V13.1312L4.04438 13.6282C3.94191 13.6856 3.83069 13.7129 3.72106 13.7129C3.48879 13.7129 3.26343 13.5907 3.14186 13.3737C2.96291 13.0541 3.07696 12.65 3.39649 12.4711L4.23801 12L3.39649 11.5288C3.07696 11.35 2.96291 10.9458 3.14186 10.6263C3.32072 10.3069 3.72495 10.1926 4.04438 10.3717L4.93223 10.8687V10.0549C4.93223 9.68869 5.22912 9.3918 5.59533 9.3918C5.96154 9.3918 6.25843 9.68869 6.25843 10.0549V10.8688L7.14628 10.3717C7.46581 10.1928 7.86994 10.3069 8.0488 10.6263C8.22775 10.9458 8.1137 11.35 7.79417 11.5288L6.95265 12L7.79417 12.4711ZM14.1988 12.4711C14.5184 12.65 14.6324 13.0541 14.4535 13.3737C14.3319 13.5907 14.1065 13.7129 13.8743 13.7129C13.7646 13.7129 13.6534 13.6857 13.5509 13.6282L12.6631 13.1312V13.945C12.6631 14.3112 12.3662 14.6081 12 14.6081C11.6338 14.6081 11.3369 14.3112 11.3369 13.945V13.1311L10.4491 13.6282C10.3466 13.6856 10.2354 13.7129 10.1257 13.7129C9.89346 13.7129 9.6681 13.5907 9.54653 13.3737C9.36758 13.0541 9.48163 12.65 9.80116 12.4711L10.6427 12L9.80116 11.5288C9.48163 11.35 9.36758 10.9458 9.54653 10.6263C9.72548 10.3069 10.1295 10.1926 10.4491 10.3717L11.3369 10.8688V10.0549C11.3369 9.68869 11.6338 9.3918 12 9.3918C12.3662 9.3918 12.6631 9.68869 12.6631 10.0549V10.8687L13.5509 10.3717C13.8706 10.1928 14.2746 10.3069 14.4535 10.6263C14.6324 10.9458 14.5184 11.35 14.1988 11.5288L13.3573 12L14.1988 12.4711ZM20.6036 12.4711C20.9231 12.65 21.0372 13.0541 20.8582 13.3737C20.7367 13.5907 20.5113 13.7129 20.279 13.7129C20.1694 13.7129 20.0582 13.6857 19.9557 13.6282L19.0679 13.1312V13.945C19.0679 14.3112 18.771 14.6081 18.4048 14.6081C18.0385 14.6081 17.7417 14.3112 17.7417 13.945V13.1312L16.8538 13.6282C16.7513 13.6856 16.6401 13.7129 16.5305 13.7129C16.2982 13.7129 16.0729 13.5907 15.9513 13.3737C15.7723 13.0541 15.8864 12.65 16.2059 12.4711L17.0474 12L16.2059 11.5288C15.8864 11.35 15.7723 10.9458 15.9513 10.6263C16.1301 10.3069 16.5343 10.1926 16.8538 10.3717L17.7417 10.8687V10.0549C17.7417 9.68869 18.0385 9.3918 18.4048 9.3918C18.771 9.3918 19.0679 9.68869 19.0679 10.0549V10.8687L19.9557 10.3717C20.2753 10.1928 20.6795 10.3069 20.8582 10.6263C21.0372 10.9458 20.9231 11.35 20.6036 11.5288L19.7621 12L20.6036 12.4711Z" fill="#798086"/>
</svg>
