<svg width="24" height="24" viewBox="0 0 24 24" fill="none" xmlns="http://www.w3.org/2000/svg">
<path d="M18.8353 9.65986C18.4448 9.26934 17.8116 9.26934 17.421 9.65986L13.4142 13.6668L11.2929 11.5454C11.1053 11.3578 10.851 11.2524 10.5857 11.2524C10.3205 11.2524 10.0662 11.3578 9.87867 11.5454L5.16468 16.2595C4.77417 16.65 4.77417 17.2831 5.16468 17.6737C5.35996 17.869 5.6159 17.9666 5.87174 17.9666C6.12768 17.9666 6.38362 17.8689 6.57881 17.6737L10.5857 13.6669L12.707 15.7882C12.8946 15.9758 13.1489 16.0811 13.4142 16.0811C13.6794 16.0811 13.9337 15.9758 14.1212 15.7882L18.8353 11.0741C19.2258 10.6836 19.2258 10.0504 18.8353 9.65986Z" fill="#E7E7E7"/>
<path d="M22 2.00002H15.6667V0.999984C15.6667 0.44775 15.219 0 14.6667 0H9.33333C8.78105 0 8.33334 0.44775 8.33334 0.999984V1.99997H2.00001C1.44773 1.99997 1.00003 2.44772 1.00003 2.99995V23C1.00003 23.5522 1.44778 24 2.00001 24H22C22.5523 24 23 23.5522 23 23V3C23 2.44772 22.5523 2.00002 22 2.00002ZM10.3333 2.00002H13.6666V2.99606C13.6666 2.99738 13.6665 2.99864 13.6665 3C13.6665 3.00136 13.6666 3.00258 13.6666 3.00394V3.99998H10.3333V2.00002ZM21 22H3V3.99998H8.33334V4.99997C8.33334 5.55225 8.78109 5.99995 9.33333 5.99995H14.6667C15.219 5.99995 15.6667 5.5522 15.6667 4.99997V3.99998H21V22Z" fill="#E7E7E7"/>
</svg>
