<svg width="24" height="24" viewBox="0 0 24 24" fill="none" xmlns="http://www.w3.org/2000/svg">
<path d="M23.9999 16.9486C23.9999 15.5443 23.5794 14.1882 22.7836 13.0271C22.2113 12.1919 21.4742 11.4983 20.6201 10.983C21.6257 10.0306 22.2549 8.68465 22.2549 7.19362C22.2549 4.31452 19.9125 1.97214 17.0335 1.97214C15.3263 1.97214 13.7271 2.81646 12.7557 4.20247C12.5089 4.16651 12.2567 4.14712 12 4.14712C11.7433 4.14712 11.4911 4.16658 11.2443 4.20247C10.2729 2.81646 8.67364 1.97214 6.9665 1.97214C4.0874 1.97214 1.74502 4.31452 1.74502 7.19362C1.74502 8.68465 2.37421 10.0306 3.37987 10.983C2.52569 11.4983 1.78865 12.1919 1.21636 13.027C0.420615 14.1882 0 15.5443 0 16.9486V19.8529H5.03353V22.0278H18.9665V19.8529H24V16.9486H23.9999ZM17.0335 3.26085C19.202 3.26085 20.9663 5.02508 20.9663 7.19368C20.9663 9.36228 19.202 11.1265 17.0335 11.1265C16.9946 11.1265 16.9558 11.1259 16.9169 11.1248C16.9198 11.1165 16.9223 11.1081 16.9252 11.0998C16.9923 10.9095 17.0483 10.714 17.0932 10.5143C17.0964 10.5002 17.1 10.4861 17.103 10.4719C17.1147 10.418 17.1249 10.3636 17.1349 10.3091C17.1396 10.2833 17.1444 10.2576 17.1488 10.2318C17.1569 10.1832 17.1642 10.1343 17.171 10.0853C17.1757 10.0512 17.18 10.0171 17.184 9.98296C17.1891 9.93966 17.1941 9.8963 17.1981 9.85268C17.2022 9.80816 17.2053 9.76357 17.2083 9.71892C17.2106 9.68374 17.2135 9.64869 17.2151 9.61331C17.2187 9.53748 17.2207 9.46151 17.2209 9.38548C17.2209 9.37987 17.2214 9.3744 17.2214 9.36873C17.2214 9.3657 17.2211 9.36267 17.2211 9.35964C17.221 9.282 17.2187 9.20481 17.2153 9.12788C17.2142 9.10552 17.2129 9.08323 17.2116 9.06093C17.2078 8.99553 17.2028 8.93046 17.1967 8.8657C17.1953 8.85101 17.1941 8.83632 17.1926 8.8217C16.9979 6.93969 15.809 5.32881 14.0938 4.58371C14.8329 3.75337 15.9019 3.26085 17.0335 3.26085ZM10.6392 5.67849C10.6518 5.67391 10.6645 5.66959 10.677 5.66508C10.7162 5.6511 10.7556 5.63783 10.7952 5.62501C10.8252 5.61541 10.8555 5.60613 10.8859 5.59724C10.908 5.59073 10.9301 5.58448 10.9524 5.57829C10.9921 5.5674 11.0319 5.55677 11.0722 5.54704C11.3699 5.47475 11.6803 5.43551 11.9998 5.43551C12.3196 5.43577 12.6302 5.47507 12.9279 5.54737C12.9679 5.55703 13.0076 5.5676 13.0471 5.57842C13.0696 5.58467 13.0922 5.59099 13.1145 5.59762C13.1445 5.60645 13.1744 5.6156 13.2041 5.62507C13.2443 5.63802 13.2842 5.65142 13.3237 5.6656C13.3359 5.66992 13.3481 5.67404 13.3602 5.67849C14.6755 6.16489 15.6616 7.33543 15.8848 8.75597C15.8865 8.76731 15.8882 8.77872 15.8899 8.79012C15.897 8.83825 15.903 8.88677 15.9084 8.93542C15.9103 8.95333 15.9124 8.97118 15.9141 8.98916C15.9184 9.03355 15.9215 9.07827 15.9244 9.12311C15.9255 9.14231 15.9271 9.16145 15.928 9.18071C15.9307 9.23799 15.9322 9.2956 15.9324 9.35352C15.9324 9.35855 15.9327 9.36344 15.9327 9.36847C15.9327 9.37079 15.9326 9.37317 15.9326 9.37549C15.9325 9.43155 15.9308 9.48722 15.9284 9.5427C15.9276 9.56016 15.9268 9.57762 15.9258 9.59501C15.9227 9.64862 15.9188 9.70197 15.9136 9.75494C15.9116 9.77542 15.9089 9.79585 15.9066 9.81628C15.9026 9.85055 15.8983 9.88477 15.8935 9.91879C15.8898 9.94527 15.886 9.97182 15.8818 9.99817C15.8753 10.0383 15.868 10.0782 15.8603 10.1179C15.8534 10.1533 15.8459 10.1886 15.838 10.2237C15.8333 10.2449 15.8284 10.2661 15.8233 10.2872C15.8108 10.3395 15.797 10.3914 15.7823 10.4431C15.7764 10.4637 15.7709 10.4844 15.7648 10.5047C15.7558 10.5344 15.7461 10.5638 15.7365 10.5931C15.7288 10.6167 15.7209 10.64 15.7127 10.6634C15.7034 10.6899 15.6943 10.7164 15.6845 10.7427C15.6678 10.7873 15.6503 10.8316 15.632 10.8755C15.6239 10.8951 15.6153 10.9145 15.6068 10.934C15.5909 10.9705 15.5746 11.0069 15.5575 11.0428C15.5555 11.0471 15.5535 11.0513 15.5516 11.0556C15.5454 11.0683 15.5394 11.0811 15.5331 11.0939C15.5141 11.1328 15.4942 11.1713 15.4738 11.2094C15.4659 11.2243 15.4583 11.2393 15.4501 11.254C15.4496 11.255 15.4491 11.2559 15.4486 11.2568C15.4263 11.2974 15.403 11.3373 15.3794 11.377C15.37 11.3927 15.3607 11.4085 15.3511 11.4241C15.3253 11.4659 15.2988 11.5072 15.2716 11.548C15.2546 11.5733 15.2369 11.5981 15.2194 11.623C15.2045 11.6442 15.1897 11.6654 15.1744 11.6862C15.1546 11.7131 15.1345 11.7397 15.114 11.7662C15.1001 11.7842 15.086 11.802 15.0719 11.8198C15.0502 11.8469 15.0284 11.8738 15.0061 11.9003C14.9922 11.9167 14.978 11.9328 14.9639 11.949C14.9407 11.9756 14.9175 12.0023 14.8937 12.0282C14.8795 12.0436 14.8648 12.0585 14.8504 12.0737C14.8116 12.1146 14.7719 12.1546 14.7315 12.1938C14.7074 12.2171 14.6835 12.2404 14.6589 12.263C14.6419 12.2787 14.6244 12.2939 14.6071 12.3093C14.5789 12.3344 14.5505 12.3592 14.5215 12.3834C14.5068 12.3957 14.492 12.4079 14.4771 12.42C14.4422 12.4485 14.4067 12.4764 14.3707 12.5037C14.3609 12.5111 14.3512 12.5186 14.3414 12.526C13.6867 13.0126 12.8764 13.3011 11.9999 13.3011C11.1233 13.3011 10.3129 13.0126 9.65823 12.5258C9.64857 12.5186 9.6391 12.5112 9.6295 12.5039C9.59335 12.4765 9.55772 12.4484 9.5226 12.4198C9.50785 12.4077 9.49309 12.3957 9.47853 12.3835C9.44947 12.3591 9.42099 12.3342 9.39264 12.309C9.37544 12.2937 9.35804 12.2786 9.3411 12.263C9.31642 12.2404 9.29245 12.217 9.26835 12.1937C9.2277 12.1543 9.18794 12.1142 9.14902 12.0732C9.13479 12.0581 9.12022 12.0435 9.10624 12.0283C9.08234 12.0023 9.05921 11.9755 9.03601 11.9489C9.0219 11.9328 9.00772 11.9167 8.99387 11.9003C8.97151 11.8738 8.94973 11.8469 8.92809 11.8199C8.91391 11.8021 8.8998 11.7842 8.88588 11.7662C8.86546 11.7398 8.84529 11.7132 8.82551 11.6862C8.81024 11.6654 8.79535 11.6441 8.78047 11.6229C8.76295 11.598 8.74529 11.5733 8.72841 11.548C8.70103 11.5071 8.67442 11.4656 8.64858 11.4237C8.63911 11.4083 8.62996 11.3927 8.62068 11.3772C8.59665 11.3369 8.57313 11.2965 8.55051 11.2553C8.5422 11.2402 8.53434 11.2248 8.52616 11.2096C8.50579 11.1713 8.48589 11.1327 8.46675 11.0937C8.45992 11.0799 8.45328 11.0659 8.44665 11.052C8.44562 11.0498 8.44465 11.0477 8.44368 11.0456C8.42583 11.008 8.40876 10.9699 8.39207 10.9316C8.38415 10.9134 8.37609 10.8952 8.36849 10.8769C8.3498 10.8321 8.33196 10.7868 8.31488 10.7412C8.30567 10.7166 8.29716 10.6917 8.28846 10.6669C8.27951 10.6415 8.27087 10.6158 8.26243 10.5901C8.25335 10.5623 8.2442 10.5344 8.23569 10.5065C8.223 10.4647 8.21102 10.4226 8.19974 10.3803C8.19182 10.3505 8.18466 10.3206 8.17738 10.2907C8.17171 10.2672 8.16624 10.2437 8.16102 10.22C8.15457 10.191 8.14807 10.1621 8.14227 10.133C8.13331 10.0876 8.12513 10.042 8.11778 9.99611C8.11379 9.97136 8.11031 9.94656 8.10676 9.92182C8.10155 9.88515 8.09684 9.8483 8.09265 9.81131C8.09059 9.79308 8.08821 9.77485 8.08634 9.75661C8.08099 9.70229 8.07693 9.64759 8.07384 9.59269C8.07294 9.57691 8.07223 9.56112 8.07152 9.54534C8.06888 9.48664 8.06701 9.42775 8.06701 9.36847C8.06701 9.30494 8.06881 9.24186 8.07184 9.17904C8.07268 9.16196 8.0741 9.14502 8.07506 9.12801C8.0779 9.08084 8.08131 9.03381 8.08582 8.98703C8.08737 8.97073 8.08924 8.95449 8.09098 8.93825C8.09652 8.88761 8.10277 8.83722 8.11024 8.78716C8.11166 8.77743 8.11308 8.76764 8.11463 8.75791C8.33711 7.33653 9.32344 6.16521 10.6392 5.67849ZM3.03367 7.19368C3.03367 5.02514 4.7979 3.26085 6.9665 3.26085C8.09813 3.26085 9.16713 3.75344 9.90623 4.58359C8.19046 5.32894 7.00123 6.94059 6.8071 8.82337C6.80574 8.83613 6.80478 8.84895 6.80355 8.86177C6.79711 8.92885 6.79202 8.99618 6.78815 9.0639C6.78699 9.08452 6.78571 9.10507 6.78474 9.12575C6.78107 9.20636 6.77855 9.28722 6.77855 9.36866C6.77855 9.45088 6.78094 9.5329 6.7848 9.61486C6.78635 9.64785 6.78906 9.68052 6.79118 9.71331C6.79434 9.76048 6.79756 9.80764 6.80194 9.85468C6.80581 9.89649 6.81058 9.93805 6.81547 9.97961C6.81973 10.0158 6.82424 10.0519 6.82926 10.088C6.83583 10.1353 6.84292 10.1825 6.85072 10.2295C6.85542 10.2574 6.86058 10.2852 6.86567 10.313C6.87533 10.3656 6.88519 10.4181 6.8964 10.4701C6.90014 10.4872 6.90439 10.5042 6.90826 10.5213C6.95201 10.7148 7.00632 10.9042 7.07101 11.0889C7.07514 11.1009 7.07874 11.1129 7.08293 11.1248C7.04408 11.1259 7.00516 11.1265 6.96637 11.1265C4.7979 11.1264 3.03367 9.36222 3.03367 7.19368ZM6.11387 15.4089C6.09969 15.4312 6.08616 15.454 6.07224 15.4765C6.0428 15.524 6.01361 15.5717 5.98539 15.6198C5.9696 15.6467 5.9544 15.6738 5.93906 15.7008C5.91368 15.7455 5.88861 15.7903 5.86426 15.8354C5.84892 15.8638 5.83384 15.8924 5.8189 15.9209C5.79544 15.9658 5.77257 16.011 5.75015 16.0563C5.73604 16.0848 5.72199 16.1132 5.70833 16.1418C5.68552 16.1895 5.66355 16.2377 5.64184 16.2859C5.63004 16.3121 5.61793 16.3381 5.60653 16.3645C5.5814 16.4222 5.55743 16.4804 5.53391 16.5388C5.52702 16.5558 5.51967 16.5727 5.51297 16.5898C5.48314 16.6656 5.4546 16.742 5.42753 16.8187C5.42135 16.8363 5.41581 16.8541 5.40969 16.8717C5.38933 16.9308 5.36948 16.9902 5.35073 17.0498C5.34216 17.0772 5.33424 17.1047 5.32599 17.1321C5.31085 17.1826 5.29596 17.2332 5.28198 17.2841C5.27367 17.3144 5.26574 17.3448 5.25782 17.3752C5.24506 17.424 5.23282 17.473 5.22122 17.5221C5.21381 17.5533 5.20659 17.5844 5.1997 17.6156C5.18862 17.6654 5.17824 17.7154 5.16826 17.7654C5.16227 17.7955 5.15608 17.8256 5.15047 17.8558C5.14036 17.9103 5.13127 17.9651 5.12245 18.0199C5.11832 18.0457 5.11375 18.0714 5.10988 18.0971C5.0979 18.1777 5.08701 18.2584 5.07786 18.3395C5.07773 18.3405 5.07767 18.3415 5.0776 18.3424C5.06929 18.4162 5.06214 18.4901 5.05614 18.5643H1.28865V16.9486C1.28865 14.7413 2.55758 12.7597 4.54558 11.8178C5.2698 12.1985 6.09306 12.4152 6.96644 12.4152C7.21901 12.4152 7.47236 12.3965 7.72378 12.3595C7.76295 12.4154 7.80277 12.4706 7.84401 12.5249C7.85793 12.5431 7.87236 12.5609 7.88653 12.5789C7.92726 12.631 7.96856 12.6825 8.01121 12.7329C8.02867 12.7536 8.04659 12.7739 8.06437 12.7943C8.10432 12.8402 8.14491 12.8855 8.1864 12.9298C8.20818 12.9532 8.23035 12.9762 8.25251 12.9992C8.29046 13.0383 8.32893 13.0769 8.36804 13.1148C8.38273 13.1291 8.39658 13.1441 8.4114 13.1583C8.35541 13.1921 8.29993 13.2268 8.24497 13.2621C8.23602 13.2679 8.22725 13.2739 8.21836 13.2797C8.1634 13.3154 8.10902 13.3519 8.05515 13.3891C8.03653 13.4019 8.01798 13.415 7.99942 13.428C7.95142 13.4618 7.90393 13.4962 7.85683 13.5312C7.84195 13.5423 7.82687 13.5531 7.81212 13.5643C7.75219 13.6096 7.69298 13.6557 7.63454 13.7029C7.62178 13.7132 7.60928 13.7238 7.59652 13.7343C7.55 13.7724 7.50393 13.8111 7.45845 13.8504C7.44079 13.8656 7.42327 13.8809 7.40574 13.8963C7.36019 13.9365 7.31521 13.9772 7.27069 14.0185C7.25909 14.0293 7.24724 14.0398 7.2357 14.0507C7.18106 14.1021 7.12726 14.1545 7.07423 14.2078C7.06045 14.2217 7.04698 14.2358 7.03332 14.2497C6.99273 14.2911 6.95259 14.333 6.91296 14.3755C6.89724 14.3923 6.88152 14.4092 6.86592 14.4263C6.82134 14.475 6.77739 14.5244 6.73416 14.5744C6.72739 14.5823 6.72037 14.5899 6.71361 14.5978C6.66431 14.6553 6.61612 14.714 6.56857 14.7732C6.5553 14.7897 6.54234 14.8064 6.52926 14.8231C6.4935 14.8686 6.45826 14.9144 6.4236 14.9608C6.41019 14.9787 6.39673 14.9965 6.38352 15.0145C6.33816 15.0763 6.29338 15.1387 6.24989 15.2022C6.20317 15.2704 6.15794 15.3394 6.11387 15.4089ZM6.32218 20.7393V19.853V19.1236C6.32218 19.0521 6.32353 18.9808 6.32617 18.9098C6.32701 18.8864 6.32888 18.8632 6.33004 18.8398C6.33236 18.7924 6.33455 18.7449 6.33803 18.6977C6.34016 18.669 6.34338 18.6406 6.34595 18.612C6.34969 18.5704 6.35304 18.5287 6.35768 18.4873C6.3611 18.4571 6.36554 18.427 6.36941 18.3967C6.37443 18.3574 6.37914 18.3179 6.38494 18.2788C6.38964 18.2476 6.39531 18.2167 6.40046 18.1856C6.40678 18.1478 6.41264 18.11 6.41973 18.0724C6.42572 18.0406 6.43268 18.0092 6.43919 17.9776C6.44666 17.9411 6.45381 17.9045 6.462 17.8683C6.46921 17.8363 6.47746 17.8047 6.48519 17.7728C6.49389 17.7374 6.5022 17.7018 6.51155 17.6665C6.52005 17.6345 6.52946 17.6028 6.53848 17.571C6.54827 17.5364 6.55781 17.5018 6.56825 17.4674C6.57798 17.4355 6.58867 17.4038 6.59892 17.372C6.60987 17.3383 6.6205 17.3046 6.63203 17.2711C6.64299 17.2395 6.65478 17.2081 6.66625 17.1767C6.67836 17.1436 6.69022 17.1104 6.70291 17.0775C6.71502 17.0462 6.72791 17.0154 6.74047 16.9843C6.75368 16.9519 6.7667 16.9193 6.78049 16.8872C6.79382 16.8562 6.80787 16.8255 6.82172 16.7948C6.83596 16.7632 6.85007 16.7314 6.86489 16.7001C6.87939 16.6695 6.8946 16.6393 6.90961 16.6089C6.92494 16.578 6.94009 16.547 6.95594 16.5164C6.97159 16.4863 6.9879 16.4565 7.00407 16.4267C7.02043 16.3964 7.03661 16.3662 7.05349 16.3363C7.07024 16.3067 7.08764 16.2775 7.10484 16.2482C7.12224 16.2187 7.1395 16.1891 7.15748 16.1598C7.17533 16.1308 7.19376 16.1022 7.21212 16.0734C7.23055 16.0446 7.24885 16.0158 7.26779 15.9874C7.28673 15.9589 7.30619 15.9308 7.32565 15.9027C7.34504 15.8747 7.36437 15.8466 7.38422 15.8189C7.40419 15.7911 7.42475 15.7637 7.4453 15.7361C7.46566 15.7089 7.48596 15.6816 7.50677 15.6548C7.52777 15.6276 7.5493 15.6009 7.57082 15.5741C7.59214 15.5475 7.61353 15.5211 7.63531 15.4949C7.65728 15.4686 7.67971 15.4426 7.70213 15.4167C7.72449 15.3909 7.74691 15.3651 7.76978 15.3396C7.79266 15.314 7.81605 15.2889 7.83937 15.2638C7.86269 15.2387 7.88602 15.2138 7.90979 15.1892C7.93363 15.1644 7.95793 15.1401 7.98228 15.1158C8.00657 15.0915 8.03099 15.0673 8.05573 15.0434C8.08041 15.0196 8.10548 14.9962 8.13067 14.9728C8.15593 14.9494 8.18131 14.926 8.20702 14.9029C8.23267 14.88 8.25857 14.8573 8.28466 14.8349C8.31082 14.8122 8.33718 14.7898 8.36379 14.7676C8.39027 14.7456 8.41701 14.7238 8.44394 14.7023C8.47107 14.6805 8.49839 14.6589 8.52596 14.6376C8.55322 14.6166 8.58073 14.5958 8.60837 14.5752C8.63646 14.5543 8.66475 14.5336 8.69336 14.5131C8.72132 14.4931 8.74954 14.4734 8.77796 14.4538C8.80708 14.4338 8.83633 14.414 8.86584 14.3945C8.89452 14.3755 8.92345 14.3568 8.95251 14.3383C8.9826 14.3191 9.01288 14.3003 9.04336 14.2817C9.07274 14.2638 9.10231 14.2461 9.13208 14.2287C9.16301 14.2106 9.19419 14.1927 9.22557 14.1751C9.25566 14.1583 9.28594 14.1416 9.31642 14.1252C9.34831 14.1081 9.38047 14.0912 9.41281 14.0746C9.44348 14.0588 9.47428 14.0433 9.50534 14.028C9.52976 14.016 9.55443 14.0045 9.57911 13.9928C10.3033 14.3735 11.1267 14.5901 12 14.5901C12.8734 14.5901 13.6967 14.3735 14.4208 13.9928C14.4453 14.0044 14.4698 14.0159 14.494 14.0278C14.5255 14.0432 14.5566 14.059 14.5876 14.0749C14.6196 14.0913 14.6514 14.1079 14.683 14.1249C14.7138 14.1414 14.7444 14.1583 14.7748 14.1754C14.8058 14.1928 14.8366 14.2104 14.8671 14.2283C14.8974 14.2459 14.9273 14.2639 14.9571 14.2821C14.9872 14.3005 15.017 14.319 15.0467 14.3379C15.0762 14.3566 15.1054 14.3756 15.1345 14.3948C15.1637 14.4141 15.1926 14.4337 15.2213 14.4535C15.25 14.4733 15.2785 14.4932 15.3068 14.5134C15.3351 14.5336 15.3631 14.5541 15.3909 14.5749C15.4189 14.5956 15.4467 14.6166 15.4742 14.6378C15.5015 14.659 15.5285 14.6803 15.5555 14.7019C15.5825 14.7236 15.6095 14.7455 15.6362 14.7677C15.6626 14.7897 15.6888 14.812 15.7148 14.8345C15.741 14.8571 15.7671 14.8799 15.7929 14.903C15.8184 14.9259 15.8436 14.9491 15.8687 14.9724C15.8941 14.9959 15.9194 15.0196 15.9443 15.0437C15.9689 15.0673 15.993 15.0913 16.0171 15.1153C16.0416 15.1398 16.066 15.1644 16.0901 15.1892C16.1137 15.2137 16.1369 15.2385 16.1601 15.2633C16.1836 15.2887 16.2072 15.314 16.2302 15.3397C16.2529 15.365 16.2751 15.3906 16.2973 15.4162C16.3199 15.4423 16.3425 15.4685 16.3646 15.495C16.3863 15.521 16.4075 15.5474 16.4287 15.5737C16.4504 15.6006 16.472 15.6275 16.4932 15.6548C16.5139 15.6816 16.5341 15.7087 16.5543 15.7358C16.5749 15.7634 16.5956 15.791 16.6157 15.819C16.6354 15.8465 16.6547 15.8745 16.674 15.9024C16.6935 15.9306 16.7131 15.9588 16.7321 15.9874C16.7509 16.0157 16.7691 16.0443 16.7874 16.0729C16.8059 16.1019 16.8244 16.1307 16.8424 16.16C16.8602 16.1889 16.8773 16.2183 16.8946 16.2475C16.912 16.277 16.9295 16.3065 16.9463 16.3363C16.9631 16.3661 16.9792 16.3962 16.9955 16.4263C17.0118 16.4562 17.0281 16.4861 17.0438 16.5164C17.0597 16.5469 17.0747 16.5779 17.0901 16.6087C17.1051 16.6391 17.1204 16.6694 17.1348 16.7C17.1497 16.7314 17.1637 16.763 17.1779 16.7946C17.1918 16.8254 17.2059 16.8561 17.2193 16.8872C17.233 16.9191 17.2458 16.9514 17.2589 16.9836C17.2717 17.0149 17.2847 17.0461 17.2969 17.0777C17.3095 17.1104 17.3213 17.1434 17.3334 17.1764C17.3449 17.2079 17.3567 17.2393 17.3676 17.271C17.3792 17.3046 17.3899 17.3386 17.4009 17.3724C17.4111 17.404 17.4218 17.4355 17.4314 17.4674C17.4419 17.5018 17.4514 17.5365 17.4613 17.5711C17.4703 17.6029 17.4797 17.6345 17.4882 17.6665C17.4975 17.7018 17.5059 17.7373 17.5146 17.7728C17.5223 17.8046 17.5305 17.8363 17.5377 17.8683C17.5459 17.9045 17.553 17.941 17.5606 17.9774C17.5671 18.0091 17.574 18.0406 17.58 18.0724C17.587 18.1096 17.5928 18.1472 17.5991 18.1847C17.6044 18.2161 17.6102 18.2473 17.6149 18.2788C17.6207 18.3177 17.6253 18.3569 17.6303 18.3959C17.6343 18.4264 17.6388 18.4567 17.6422 18.4873C17.6468 18.5286 17.6502 18.5703 17.6539 18.612C17.6565 18.6406 17.6597 18.669 17.6618 18.6976C17.6654 18.7449 17.6675 18.7924 17.6698 18.8399C17.671 18.8632 17.6729 18.8864 17.6737 18.9097C17.6763 18.9808 17.6777 19.052 17.6777 19.1235V19.8529V20.7393H6.32218V20.7393ZM18.9441 18.5643C18.9315 18.4073 18.9133 18.2513 18.8902 18.0963C18.8866 18.0717 18.8822 18.0474 18.8783 18.0229C18.8693 17.9668 18.86 17.9108 18.8496 17.855C18.8441 17.8256 18.8381 17.7964 18.8323 17.767C18.8221 17.7161 18.8116 17.6652 18.8003 17.6146C18.7935 17.5841 18.7864 17.5535 18.7792 17.5231C18.7674 17.4734 18.755 17.4238 18.7421 17.3744C18.7343 17.3444 18.7265 17.3145 18.7183 17.2846C18.7042 17.2332 18.6891 17.1821 18.6738 17.131C18.6656 17.104 18.6579 17.077 18.6495 17.0502C18.6305 16.9897 18.6104 16.9295 18.5897 16.8694C18.5839 16.8527 18.5786 16.8357 18.5727 16.819C18.5455 16.742 18.5169 16.6654 18.487 16.5894C18.4805 16.5731 18.4735 16.5569 18.4669 16.5406C18.4432 16.4816 18.4188 16.4226 18.3933 16.3641C18.3821 16.3381 18.3701 16.3125 18.3586 16.2866C18.3366 16.2379 18.3145 16.1894 18.2914 16.1412C18.2779 16.113 18.264 16.085 18.2502 16.0569C18.2276 16.0112 18.2044 15.9656 18.1808 15.9203C18.166 15.892 18.1511 15.8638 18.1359 15.8356C18.1114 15.7903 18.0863 15.7454 18.0607 15.7005C18.0454 15.6736 18.0303 15.6466 18.0146 15.6199C17.9863 15.5715 17.9569 15.5236 17.9273 15.4758C17.9135 15.4535 17.9001 15.431 17.8861 15.4089C17.8419 15.3394 17.7967 15.2704 17.7499 15.2022C17.7064 15.1387 17.6616 15.0763 17.6162 15.0144C17.6031 14.9965 17.5897 14.9788 17.5764 14.961C17.5415 14.9144 17.5062 14.8684 17.4703 14.8228C17.4573 14.8064 17.4445 14.7898 17.4314 14.7735C17.3838 14.714 17.3354 14.6553 17.2859 14.5976C17.2795 14.5901 17.2729 14.5829 17.2664 14.5754C17.2229 14.5249 17.1785 14.4752 17.1336 14.4261C17.1182 14.4092 17.1026 14.3925 17.087 14.3758C17.0472 14.3331 17.0068 14.2909 16.966 14.2492C16.9525 14.2355 16.9393 14.2217 16.9257 14.2081C16.8725 14.1547 16.8186 14.1021 16.7638 14.0506C16.7525 14.04 16.7409 14.0296 16.7296 14.0191C16.6848 13.9775 16.6396 13.9366 16.5938 13.8963C16.5764 13.8809 16.5589 13.8657 16.5414 13.8505C16.4957 13.8112 16.4497 13.7724 16.4031 13.7343C16.3904 13.7239 16.378 13.7133 16.3652 13.703C16.3068 13.6558 16.2476 13.6097 16.1878 13.5644C16.1728 13.5532 16.1576 13.5422 16.1426 13.5311C16.0957 13.4963 16.0485 13.462 16.0006 13.4284C15.9819 13.4152 15.9631 13.402 15.9443 13.389C15.891 13.3522 15.8372 13.3161 15.7828 13.2808C15.7733 13.2746 15.7639 13.2682 15.7544 13.2621C15.6995 13.2268 15.6442 13.1922 15.5883 13.1585C15.6027 13.1447 15.6162 13.1301 15.6305 13.1162C15.6704 13.0775 15.7097 13.0382 15.7483 12.9983C15.7699 12.976 15.7914 12.9536 15.8125 12.9309C15.8547 12.8858 15.8958 12.8398 15.9364 12.7932C15.9537 12.7735 15.971 12.7538 15.988 12.7337C16.0312 12.6826 16.0732 12.6303 16.1145 12.5774C16.128 12.5601 16.1419 12.5431 16.1552 12.5257C16.1966 12.4712 16.2366 12.4157 16.276 12.3596C16.5274 12.3965 16.7807 12.4152 17.0333 12.4152C17.9067 12.4152 18.73 12.1986 19.4542 11.8179C21.4422 12.7597 22.7111 14.7414 22.7111 16.9487V18.5643H18.9441V18.5643Z" fill="#E7E7E7"/>
</svg>
