<svg width="24" height="24" viewBox="0 0 24 24" fill="none" xmlns="http://www.w3.org/2000/svg">
<g clip-path="url(#clip0_5_34)">
<path d="M0.66028 9.09347C0.66028 6.92503 2.05476 5.05514 4.0364 4.38961C4.15598 1.94878 6.17925 0 8.64923 0C9.94851 0 11.1479 0.538781 12 1.43714C12.8521 0.538781 14.0515 0 15.3508 0C17.8207 0 19.844 1.94878 19.9635 4.38961C21.9451 5.05519 23.3397 6.92508 23.3397 9.09347C23.3397 10.213 22.967 11.2799 22.2931 12.1432C22.834 12.95 23.1239 13.8975 23.1239 14.895C23.1239 16.9804 21.8437 18.7923 19.967 19.5197C19.8938 22.0028 17.8512 24 15.3507 24C14.0515 24 12.852 23.4612 11.9999 22.5629C11.1479 23.4612 9.94842 24 8.64923 24C6.14887 24 4.10616 22.0028 4.03294 19.5198C2.1563 18.7923 0.875998 16.9804 0.875998 14.895C0.875998 13.8975 1.16587 12.95 1.70691 12.1432C1.03303 11.2799 0.66028 10.2129 0.66028 9.09347ZM13.0908 20.2895C13.4595 21.2096 14.3483 21.8182 15.3508 21.8182C16.6942 21.8182 17.7873 20.7252 17.7873 19.3816C17.7873 19.228 17.7723 19.0718 17.7426 18.9176C17.7423 18.9159 17.7422 18.9143 17.7418 18.9126C17.6491 18.437 17.4183 18.0035 17.0736 17.6587C16.6476 17.2327 16.6476 16.542 17.0736 16.116C17.4996 15.6899 18.1904 15.6899 18.6164 16.116C18.9769 16.4766 19.2716 16.8891 19.4932 17.3381C20.3673 16.8637 20.9421 15.941 20.9421 14.895C20.9421 14.1268 20.6348 13.4114 20.0769 12.8804C20.0734 12.8771 20.0705 12.8733 20.0671 12.8699C19.5492 12.3822 18.8729 12.1135 18.1607 12.1135H16.3637C15.7612 12.1135 15.2728 11.625 15.2728 11.0226C15.2728 10.4201 15.7612 9.93164 16.3637 9.93164H18.1606C19.0643 9.93164 19.9352 10.1749 20.6957 10.6279C20.9941 10.1779 21.1579 9.64734 21.1579 9.09342C21.1579 7.67911 20.1 6.49153 18.6971 6.33103C18.3975 6.29677 18.1256 6.14006 17.9457 5.89809C17.7658 5.65612 17.6941 5.35055 17.7475 5.05378C17.7739 4.90739 17.7872 4.76091 17.7872 4.61831C17.7873 3.27497 16.6943 2.18194 15.3508 2.18194C14.3482 2.18194 13.4596 2.79047 13.0909 3.71067V20.2895H13.0908ZM7.63622 12.1136H5.83922C5.12714 12.1136 4.45092 12.3822 3.93319 12.8697C3.92972 12.8731 3.92662 12.877 3.92306 12.8805C3.36511 13.4115 3.05775 14.127 3.05775 14.8951C3.05784 15.941 3.63258 16.8637 4.5067 17.338C4.72828 16.8889 5.02294 16.4764 5.38359 16.1159C5.80964 15.6899 6.50039 15.6899 6.92634 16.116C7.3523 16.542 7.3523 17.2327 6.92625 17.6587C6.58181 18.003 6.35095 18.4362 6.25823 18.9116C6.25786 18.9135 6.25781 18.9156 6.25734 18.9175C6.22767 19.0717 6.21262 19.2278 6.21262 19.3815C6.21262 20.7251 7.30566 21.8181 8.64914 21.8181C9.65161 21.8181 10.5403 21.2096 10.9089 20.2894V3.71053C10.5404 2.79033 9.6517 2.1818 8.64923 2.1818C7.30575 2.1818 6.21272 3.27483 6.21272 4.61831C6.21272 4.76114 6.22608 4.90767 6.25237 5.05378C6.30581 5.3505 6.23414 5.65612 6.05419 5.89809C5.87433 6.14006 5.60231 6.29677 5.30278 6.33112C3.89995 6.49172 2.84208 7.67925 2.84208 9.09352C2.84208 9.64739 3.00595 10.178 3.30426 10.6279C4.06472 10.1751 4.93552 9.93178 5.83927 9.93178H7.63627C8.23875 9.93178 8.72719 10.4202 8.72719 11.0227C8.72714 11.6251 8.2387 12.1136 7.63622 12.1136Z" fill="#E7E7E7"/>
</g>
<defs>
<clipPath id="clip0_5_34">
<rect width="24" height="24" fill="white" transform="matrix(-1 0 0 1 24 0)"/>
</clipPath>
</defs>
</svg>
