<svg width="24" height="24" viewBox="0 0 24 24" fill="none" xmlns="http://www.w3.org/2000/svg">
<g clip-path="url(#clip0_60_43)">
<path d="M11.9976 12.8178C15.5185 12.8178 18.4322 10.0118 18.4322 6.43705C18.4322 2.86227 15.5185 0.00244141 11.9976 0.00244141C8.47665 0.00244141 5.56296 2.8084 5.56296 6.38318C5.56296 9.95796 8.47665 12.8178 11.9976 12.8178ZM11.9976 1.9955C14.446 1.9955 16.4391 3.98857 16.4391 6.38808C16.4391 8.78759 14.446 10.7758 11.9976 10.7758C9.54908 10.7758 7.55602 8.78269 7.55602 6.38318C7.55602 3.98367 9.54908 1.9955 11.9976 1.9955Z" fill="#798086"/>
<path d="M16.3363 13.4299C15.9298 13.3271 15.5185 13.4299 15.2638 13.7384L11.9976 17.465L8.73128 13.7384C8.47664 13.4299 8.01632 13.332 7.65884 13.4299C3.01163 14.9627 0 18.7382 0 22.9741C0 23.5372 0.460314 23.9976 1.02346 23.9976H22.9765C23.5397 23.9976 24 23.5372 24 22.9741C23.9951 18.7382 20.9835 14.9627 16.3363 13.4299ZM2.091 22.0045C2.50235 19.1985 4.54438 16.799 7.70781 15.5748L11.2826 19.6589C11.6401 20.1192 12.404 20.1192 12.7615 19.6589L16.3363 15.5748C19.4507 16.799 21.5466 19.2475 21.9531 22.0045H2.091V22.0045Z" fill="#798086"/>
</g>
<defs>
<clipPath id="clip0_60_43">
<rect width="24" height="24" fill="white"/>
</clipPath>
</defs>
</svg>
